<svg xmlns="http://www.w3.org/2000/svg" viewBox="0 0 24 24" width="24" height="24">
  <path fill="#25D366" d="M12 0C5.373 0 0 5.373 0 12c0 2.12.55 4.11 1.53 5.86L0 24l4.27-1.42c1.66.91 3.45 1.4 5.33 1.4 5.627 0 10-4.477 10-10S17.627 0 12 0z"/>
  <path fill="#FFF" d="M17.472 14.382c-.297-.149-1.758-.867-2.03-.967-.273-.099-.471-.148-.67.15-.197.297-.767.966-.94 1.164-.173.199-.347.223-.644.075-.297-.15-1.255-.463-2.39-1.475-.883-.788-1.48-1.761-1.653-2.059-.173-.297-.018-.458.13-.606.134-.133.298-.347.446-.52.149-.174.198-.298.298-.497.099-.198.05-.371-.025-.52-.075-.149-.669-1.612-.916-2.207-.242-.579-.487-.5-.669-.51-.173-.008-.371-.01-.57-.01-.198 0-.52.074-.792.372-.272.297-1.04 1.016-1.04 2.479 0 1.462 1.065 2.875 1.213 3.074.149.198 2.096 3.2 5.077 4.487.782.326 1.398.519 1.876.668.783.225 1.494.194 2.056.117.62-.084 1.758-.72 2.006-1.417.248-.697.248-1.292.173-1.417-.074-.124-.273-.198-.57-.347z"/>
</svg>