<svg xmlns="http://www.w3.org/2000/svg" viewBox="0 0 24 24" width="24" height="24">
  <path fill="#25D366" d="M17.472 14.382c-.297-.149-1.758-.867-2.03-.967-.273-.099-.471-.148-.67.15-.197.297-.767.966-.94 1.164-.173.199-.347.223-.644.075-.297-.15-1.255-.463-2.39-1.475-.883-.788-1.48-1.761-1.653-2.059-.173-.297-.018-.458.13-.606.134-.133.298-.347.446-.52.149-.174.198-.298.298-.497.099-.198.05-.371-.025-.52-.075-.149-.669-1.612-.916-2.207-.242-.579-.487-.5-.669-.51-.173-.008-.371-.01-.57-.01-.198 0-.52.074-.792.372-.272.297-1.04 1.016-1.04 2.479 0 1.462 1.065 2.875 1.213 3.074.149.198 2.096 3.2 5.077 4.487.782.326 1.398.519 1.876.668.783.225 1.494.194 2.056.117.62-.084 1.758-.72 2.006-1.417.248-.697.248-1.292.173-1.417-.074-.124-.273-.198-.57-.347z"/>
  <path fill="#FFF" d="M12.003 2c-5.523 0-10 4.477-10 10 0 1.846.504 3.611 1.38 5.164L2 22l5.21-1.365c1.508.76 3.21 1.164 4.95 1.164 5.523 0 10-4.477 10-10s-4.477-10-10-10zm0 18c-1.68 0-3.31-.445-4.72-1.214l-.34-.203-3.47.912.923-3.39-.22-.357c-.55-8.767-3.62-11.631-10.42-11.631 0 0 0 0 0 0s10.42 0 10.42 11.631c0 1.73-.45 3.34-1.23 4.72l-.21.35C14.8 19.5 13.68 20 12.003 20z"/>
</svg>