<svg xmlns="http://www.w3.org/2000/svg" viewBox="0 0 24 24" width="24" height="24">
  <path fill="#25D366" d="M12 0C5.373 0 0 5.373 0 12c0 2.12 0.55 4.11 1.53 5.86L0 24l4.27-1.42c1.66.91 3.45 1.4 5.33 1.4h.01c6.627 0 12-5.373 12-12 0-6.627-5.373-12-12-12z"/>
  <path fill="#FFF" d="M12 18c-4.97 0-9-4.03-9-9s4.03-9 9-9 9 4.03 9 9-4.03 9-9 9zm0-12c-3.86 0-7 3.14-7 7s3.14 7 7 7 7-3.14 7-7-3.14-7-7-7z"/>
  <path fill="#FFF" d="M12 8c-1.66 0-3 1.34-3 3s1.34 3 3 3 3-1.34 3-3-1.34-3-3-3zm0 8c-1.66 0-3 1.34-3 3s1.34 3 3 3 3-1.34 3-3-1.34-3-3-3z"/>
</svg>